<mxfile host="Electron" agent="Mozilla/5.0 (Windows NT 10.0; Win64; x64) AppleWebKit/537.36 (KHTML, like Gecko) draw.io/26.1.1 Chrome/132.0.6834.210 Electron/34.3.3 Safari/537.36" version="26.1.1">
  <diagram name="Page-1" id="qKSzK8IzQV_dpvodrk-A">
    <mxGraphModel dx="1120" dy="1672" grid="1" gridSize="10" guides="1" tooltips="1" connect="1" arrows="1" fold="1" page="1" pageScale="1" pageWidth="850" pageHeight="1100" math="0" shadow="0">
      <root>
        <mxCell id="0" />
        <mxCell id="1" parent="0" />
        <mxCell id="PFwcSyFKE1UaYxGD0gQk-8" value="" style="rounded=0;whiteSpace=wrap;html=1;fillColor=#f0a30a;strokeColor=#BD7000;dashed=1;fontColor=#000000;fillStyle=hatch;" vertex="1" parent="1">
          <mxGeometry x="919" y="50" width="220" height="520" as="geometry" />
        </mxCell>
        <mxCell id="z3oN61Xf4Bhqr87E-s5c-1" value="" style="rounded=0;whiteSpace=wrap;html=1;fillColor=none;strokeColor=default;dashed=1;" parent="1" vertex="1">
          <mxGeometry x="40" y="50" width="200" height="520" as="geometry" />
        </mxCell>
        <mxCell id="z3oN61Xf4Bhqr87E-s5c-2" value="&lt;font style=&quot;font-size: 21px;&quot;&gt;Sources&lt;/font&gt;" style="rounded=0;whiteSpace=wrap;html=1;strokeColor=none;" parent="1" vertex="1">
          <mxGeometry x="80" y="20" width="120" height="60" as="geometry" />
        </mxCell>
        <mxCell id="z3oN61Xf4Bhqr87E-s5c-19" style="edgeStyle=orthogonalEdgeStyle;rounded=0;orthogonalLoop=1;jettySize=auto;html=1;entryX=0;entryY=0.5;entryDx=0;entryDy=0;" parent="1" source="z3oN61Xf4Bhqr87E-s5c-4" target="z3oN61Xf4Bhqr87E-s5c-17" edge="1">
          <mxGeometry relative="1" as="geometry" />
        </mxCell>
        <mxCell id="z3oN61Xf4Bhqr87E-s5c-20" style="edgeStyle=orthogonalEdgeStyle;rounded=0;orthogonalLoop=1;jettySize=auto;html=1;entryX=0;entryY=0.5;entryDx=0;entryDy=0;" parent="1" source="z3oN61Xf4Bhqr87E-s5c-4" target="z3oN61Xf4Bhqr87E-s5c-18" edge="1">
          <mxGeometry relative="1" as="geometry" />
        </mxCell>
        <mxCell id="z3oN61Xf4Bhqr87E-s5c-21" style="edgeStyle=orthogonalEdgeStyle;rounded=0;orthogonalLoop=1;jettySize=auto;html=1;entryX=0;entryY=0.5;entryDx=0;entryDy=0;" parent="1" source="z3oN61Xf4Bhqr87E-s5c-4" target="z3oN61Xf4Bhqr87E-s5c-16" edge="1">
          <mxGeometry relative="1" as="geometry" />
        </mxCell>
        <mxCell id="z3oN61Xf4Bhqr87E-s5c-4" value="&lt;b&gt;CRM&lt;/b&gt;" style="image;aspect=fixed;html=1;points=[];align=center;fontSize=12;image=img/lib/azure2/general/Folder_Blank.svg;" parent="1" vertex="1">
          <mxGeometry x="100" y="162" width="69" height="56.00000000000001" as="geometry" />
        </mxCell>
        <mxCell id="z3oN61Xf4Bhqr87E-s5c-28" style="edgeStyle=orthogonalEdgeStyle;rounded=0;orthogonalLoop=1;jettySize=auto;html=1;entryX=0;entryY=0.75;entryDx=0;entryDy=0;" parent="1" source="z3oN61Xf4Bhqr87E-s5c-5" target="z3oN61Xf4Bhqr87E-s5c-15" edge="1">
          <mxGeometry relative="1" as="geometry" />
        </mxCell>
        <mxCell id="z3oN61Xf4Bhqr87E-s5c-29" style="edgeStyle=orthogonalEdgeStyle;rounded=0;orthogonalLoop=1;jettySize=auto;html=1;entryX=0;entryY=0.5;entryDx=0;entryDy=0;" parent="1" source="z3oN61Xf4Bhqr87E-s5c-5" target="z3oN61Xf4Bhqr87E-s5c-13" edge="1">
          <mxGeometry relative="1" as="geometry" />
        </mxCell>
        <mxCell id="z3oN61Xf4Bhqr87E-s5c-5" value="ERP" style="image;aspect=fixed;html=1;points=[];align=center;fontSize=12;image=img/lib/azure2/general/Folder_Blank.svg;" parent="1" vertex="1">
          <mxGeometry x="100" y="434" width="69" height="56.00000000000001" as="geometry" />
        </mxCell>
        <mxCell id="z3oN61Xf4Bhqr87E-s5c-6" value="" style="rounded=0;whiteSpace=wrap;html=1;fillColor=#a0522d;strokeColor=#6D1F00;dashed=1;fontColor=#ffffff;fillStyle=hatch;" parent="1" vertex="1">
          <mxGeometry x="330" y="50" width="220" height="520" as="geometry" />
        </mxCell>
        <mxCell id="z3oN61Xf4Bhqr87E-s5c-7" value="&lt;font style=&quot;font-size: 19px;&quot;&gt;Bronze Layer&lt;/font&gt;" style="rounded=0;whiteSpace=wrap;html=1;strokeColor=#6D1F00;fillColor=#a0522d;fontColor=#ffffff;" parent="1" vertex="1">
          <mxGeometry x="380" y="20" width="120" height="60" as="geometry" />
        </mxCell>
        <mxCell id="A6Url9bmE-gUjbMV3d3s-14" style="edgeStyle=orthogonalEdgeStyle;rounded=0;orthogonalLoop=1;jettySize=auto;html=1;" parent="1" source="z3oN61Xf4Bhqr87E-s5c-13" target="A6Url9bmE-gUjbMV3d3s-3" edge="1">
          <mxGeometry relative="1" as="geometry" />
        </mxCell>
        <mxCell id="z3oN61Xf4Bhqr87E-s5c-13" value="&lt;font style=&quot;font-size: 19px;&quot;&gt;erp_px_cat_g1v2&lt;/font&gt;" style="rounded=0;whiteSpace=wrap;html=1;strokeColor=#6D1F00;fillColor=#a0522d;fontColor=#ffffff;" parent="1" vertex="1">
          <mxGeometry x="350" y="490" width="180" height="60" as="geometry" />
        </mxCell>
        <mxCell id="A6Url9bmE-gUjbMV3d3s-13" style="edgeStyle=orthogonalEdgeStyle;rounded=0;orthogonalLoop=1;jettySize=auto;html=1;" parent="1" source="z3oN61Xf4Bhqr87E-s5c-14" target="A6Url9bmE-gUjbMV3d3s-4" edge="1">
          <mxGeometry relative="1" as="geometry" />
        </mxCell>
        <mxCell id="z3oN61Xf4Bhqr87E-s5c-14" value="&lt;font style=&quot;font-size: 19px;&quot;&gt;erp_loc_a101&lt;/font&gt;" style="rounded=0;whiteSpace=wrap;html=1;strokeColor=#6D1F00;fillColor=#a0522d;fontColor=#ffffff;" parent="1" vertex="1">
          <mxGeometry x="350" y="420" width="180" height="60" as="geometry" />
        </mxCell>
        <mxCell id="A6Url9bmE-gUjbMV3d3s-12" style="edgeStyle=orthogonalEdgeStyle;rounded=0;orthogonalLoop=1;jettySize=auto;html=1;entryX=0;entryY=0.5;entryDx=0;entryDy=0;" parent="1" source="z3oN61Xf4Bhqr87E-s5c-15" target="A6Url9bmE-gUjbMV3d3s-5" edge="1">
          <mxGeometry relative="1" as="geometry" />
        </mxCell>
        <mxCell id="z3oN61Xf4Bhqr87E-s5c-15" value="&lt;font style=&quot;font-size: 19px;&quot;&gt;erp_cust_az12&lt;/font&gt;" style="rounded=0;whiteSpace=wrap;html=1;strokeColor=#6D1F00;fillColor=#a0522d;fontColor=#ffffff;" parent="1" vertex="1">
          <mxGeometry x="350" y="350" width="180" height="60" as="geometry" />
        </mxCell>
        <mxCell id="A6Url9bmE-gUjbMV3d3s-11" style="edgeStyle=orthogonalEdgeStyle;rounded=0;orthogonalLoop=1;jettySize=auto;html=1;entryX=0;entryY=0.5;entryDx=0;entryDy=0;" parent="1" source="z3oN61Xf4Bhqr87E-s5c-16" target="A6Url9bmE-gUjbMV3d3s-6" edge="1">
          <mxGeometry relative="1" as="geometry" />
        </mxCell>
        <mxCell id="z3oN61Xf4Bhqr87E-s5c-16" value="&lt;font style=&quot;font-size: 19px;&quot;&gt;crm_sales_details&lt;/font&gt;" style="rounded=0;whiteSpace=wrap;html=1;strokeColor=#6D1F00;fillColor=#a0522d;fontColor=#ffffff;" parent="1" vertex="1">
          <mxGeometry x="350" y="230" width="180" height="60" as="geometry" />
        </mxCell>
        <mxCell id="A6Url9bmE-gUjbMV3d3s-10" style="edgeStyle=orthogonalEdgeStyle;rounded=0;orthogonalLoop=1;jettySize=auto;html=1;" parent="1" source="z3oN61Xf4Bhqr87E-s5c-17" target="A6Url9bmE-gUjbMV3d3s-7" edge="1">
          <mxGeometry relative="1" as="geometry" />
        </mxCell>
        <mxCell id="z3oN61Xf4Bhqr87E-s5c-17" value="&lt;font style=&quot;font-size: 19px;&quot;&gt;crm_prd_info&lt;/font&gt;" style="rounded=0;whiteSpace=wrap;html=1;strokeColor=#6D1F00;fillColor=#a0522d;fontColor=#ffffff;" parent="1" vertex="1">
          <mxGeometry x="350" y="160" width="180" height="60" as="geometry" />
        </mxCell>
        <mxCell id="A6Url9bmE-gUjbMV3d3s-9" style="edgeStyle=orthogonalEdgeStyle;rounded=0;orthogonalLoop=1;jettySize=auto;html=1;" parent="1" source="z3oN61Xf4Bhqr87E-s5c-18" target="A6Url9bmE-gUjbMV3d3s-8" edge="1">
          <mxGeometry relative="1" as="geometry" />
        </mxCell>
        <mxCell id="z3oN61Xf4Bhqr87E-s5c-18" value="&lt;font style=&quot;font-size: 19px;&quot;&gt;crm_cust_info&lt;/font&gt;" style="rounded=0;whiteSpace=wrap;html=1;strokeColor=#6D1F00;fillColor=#a0522d;fontColor=#ffffff;" parent="1" vertex="1">
          <mxGeometry x="350" y="90" width="180" height="60" as="geometry" />
        </mxCell>
        <mxCell id="z3oN61Xf4Bhqr87E-s5c-27" style="edgeStyle=orthogonalEdgeStyle;rounded=0;orthogonalLoop=1;jettySize=auto;html=1;entryX=0.028;entryY=0.617;entryDx=0;entryDy=0;entryPerimeter=0;" parent="1" source="z3oN61Xf4Bhqr87E-s5c-5" target="z3oN61Xf4Bhqr87E-s5c-14" edge="1">
          <mxGeometry relative="1" as="geometry" />
        </mxCell>
        <mxCell id="A6Url9bmE-gUjbMV3d3s-1" value="" style="rounded=0;whiteSpace=wrap;html=1;fillColor=#647687;strokeColor=#314354;dashed=1;fontColor=#ffffff;fillStyle=hatch;" parent="1" vertex="1">
          <mxGeometry x="614" y="50" width="220" height="520" as="geometry" />
        </mxCell>
        <mxCell id="A6Url9bmE-gUjbMV3d3s-2" value="&lt;font style=&quot;font-size: 19px;&quot;&gt;Silver Layer&lt;/font&gt;" style="rounded=0;whiteSpace=wrap;html=1;strokeColor=#314354;fillColor=#647687;fontColor=#ffffff;" parent="1" vertex="1">
          <mxGeometry x="664" y="20" width="120" height="60" as="geometry" />
        </mxCell>
        <mxCell id="A6Url9bmE-gUjbMV3d3s-3" value="&lt;font style=&quot;font-size: 19px;&quot;&gt;erp_px_cat_g1v2&lt;/font&gt;" style="rounded=0;whiteSpace=wrap;html=1;strokeColor=#314354;fillColor=#647687;fontColor=#ffffff;" parent="1" vertex="1">
          <mxGeometry x="634" y="490" width="180" height="60" as="geometry" />
        </mxCell>
        <mxCell id="A6Url9bmE-gUjbMV3d3s-4" value="&lt;font style=&quot;font-size: 19px;&quot;&gt;erp_loc_a101&lt;/font&gt;" style="rounded=0;whiteSpace=wrap;html=1;strokeColor=#314354;fillColor=#647687;fontColor=#ffffff;" parent="1" vertex="1">
          <mxGeometry x="634" y="420" width="180" height="60" as="geometry" />
        </mxCell>
        <mxCell id="A6Url9bmE-gUjbMV3d3s-5" value="&lt;font style=&quot;font-size: 19px;&quot;&gt;erp_cust_az12&lt;/font&gt;" style="rounded=0;whiteSpace=wrap;html=1;strokeColor=#314354;fillColor=#647687;fontColor=#ffffff;" parent="1" vertex="1">
          <mxGeometry x="634" y="350" width="180" height="60" as="geometry" />
        </mxCell>
        <mxCell id="A6Url9bmE-gUjbMV3d3s-6" value="&lt;font style=&quot;font-size: 19px;&quot;&gt;crm_sales_details&lt;/font&gt;" style="rounded=0;whiteSpace=wrap;html=1;strokeColor=#314354;fillColor=#647687;fontColor=#ffffff;" parent="1" vertex="1">
          <mxGeometry x="634" y="230" width="180" height="60" as="geometry" />
        </mxCell>
        <mxCell id="A6Url9bmE-gUjbMV3d3s-7" value="&lt;font style=&quot;font-size: 19px;&quot;&gt;crm_prd_info&lt;/font&gt;" style="rounded=0;whiteSpace=wrap;html=1;strokeColor=#314354;fillColor=#647687;fontColor=#ffffff;" parent="1" vertex="1">
          <mxGeometry x="634" y="160" width="180" height="60" as="geometry" />
        </mxCell>
        <mxCell id="A6Url9bmE-gUjbMV3d3s-8" value="&lt;font style=&quot;font-size: 19px;&quot;&gt;crm_cust_info&lt;/font&gt;" style="rounded=0;whiteSpace=wrap;html=1;strokeColor=#314354;fillColor=#647687;fontColor=#ffffff;" parent="1" vertex="1">
          <mxGeometry x="634" y="90" width="180" height="60" as="geometry" />
        </mxCell>
        <mxCell id="A6Url9bmE-gUjbMV3d3s-15" value="&lt;b&gt;&lt;font style=&quot;font-size: 30px;&quot;&gt;Data Flow Diagram&lt;/font&gt;&lt;/b&gt;" style="text;html=1;align=center;verticalAlign=middle;whiteSpace=wrap;rounded=0;" parent="1" vertex="1">
          <mxGeometry x="40" y="-30" width="290" height="50" as="geometry" />
        </mxCell>
        <mxCell id="PFwcSyFKE1UaYxGD0gQk-1" value="&lt;font style=&quot;font-size: 19px;&quot;&gt;Gold Layer&lt;/font&gt;" style="rounded=0;whiteSpace=wrap;html=1;strokeColor=#BD7000;fillColor=#f0a30a;fontColor=#000000;" vertex="1" parent="1">
          <mxGeometry x="969" y="20" width="120" height="60" as="geometry" />
        </mxCell>
        <mxCell id="PFwcSyFKE1UaYxGD0gQk-5" value="&lt;font style=&quot;font-size: 19px;&quot;&gt;fact_sales&lt;/font&gt;" style="rounded=0;whiteSpace=wrap;html=1;strokeColor=#BD7000;fillColor=#f0a30a;fontColor=#000000;" vertex="1" parent="1">
          <mxGeometry x="939" y="450" width="180" height="60" as="geometry" />
        </mxCell>
        <mxCell id="PFwcSyFKE1UaYxGD0gQk-6" value="&lt;font style=&quot;font-size: 19px;&quot;&gt;dim_products&lt;/font&gt;" style="rounded=0;whiteSpace=wrap;html=1;strokeColor=#BD7000;fillColor=#f0a30a;fontColor=#000000;" vertex="1" parent="1">
          <mxGeometry x="939" y="280" width="180" height="60" as="geometry" />
        </mxCell>
        <mxCell id="PFwcSyFKE1UaYxGD0gQk-7" value="&lt;span style=&quot;font-size: 19px;&quot;&gt;dim_customers&lt;/span&gt;" style="rounded=0;whiteSpace=wrap;html=1;strokeColor=#BD7000;fillColor=#f0a30a;fontColor=#000000;" vertex="1" parent="1">
          <mxGeometry x="939" y="90" width="180" height="60" as="geometry" />
        </mxCell>
        <mxCell id="PFwcSyFKE1UaYxGD0gQk-10" value="" style="endArrow=classic;html=1;rounded=0;" edge="1" parent="1" source="A6Url9bmE-gUjbMV3d3s-8" target="PFwcSyFKE1UaYxGD0gQk-7">
          <mxGeometry width="50" height="50" relative="1" as="geometry">
            <mxPoint x="820" y="150" as="sourcePoint" />
            <mxPoint x="870" y="100" as="targetPoint" />
          </mxGeometry>
        </mxCell>
        <mxCell id="PFwcSyFKE1UaYxGD0gQk-11" value="" style="endArrow=classic;html=1;rounded=0;entryX=0.006;entryY=0.633;entryDx=0;entryDy=0;entryPerimeter=0;" edge="1" parent="1" source="A6Url9bmE-gUjbMV3d3s-5" target="PFwcSyFKE1UaYxGD0gQk-7">
          <mxGeometry width="50" height="50" relative="1" as="geometry">
            <mxPoint x="790" y="130" as="sourcePoint" />
            <mxPoint x="865" y="130" as="targetPoint" />
          </mxGeometry>
        </mxCell>
        <mxCell id="PFwcSyFKE1UaYxGD0gQk-12" value="" style="endArrow=classic;html=1;rounded=0;entryX=0;entryY=0.5;entryDx=0;entryDy=0;jumpStyle=gap;" edge="1" parent="1" source="A6Url9bmE-gUjbMV3d3s-7" target="PFwcSyFKE1UaYxGD0gQk-6">
          <mxGeometry width="50" height="50" relative="1" as="geometry">
            <mxPoint x="790" y="130" as="sourcePoint" />
            <mxPoint x="865" y="130" as="targetPoint" />
          </mxGeometry>
        </mxCell>
        <mxCell id="PFwcSyFKE1UaYxGD0gQk-13" value="" style="endArrow=classic;html=1;rounded=0;exitX=1;exitY=0.5;exitDx=0;exitDy=0;jumpStyle=gap;entryX=0;entryY=0.5;entryDx=0;entryDy=0;" edge="1" parent="1" source="A6Url9bmE-gUjbMV3d3s-3" target="PFwcSyFKE1UaYxGD0gQk-6">
          <mxGeometry width="50" height="50" relative="1" as="geometry">
            <mxPoint x="764" y="230" as="sourcePoint" />
            <mxPoint x="855" y="320" as="targetPoint" />
          </mxGeometry>
        </mxCell>
        <mxCell id="PFwcSyFKE1UaYxGD0gQk-14" value="" style="endArrow=classic;html=1;rounded=0;entryX=0;entryY=0.75;entryDx=0;entryDy=0;jumpStyle=gap;" edge="1" parent="1" source="A6Url9bmE-gUjbMV3d3s-4" target="PFwcSyFKE1UaYxGD0gQk-7">
          <mxGeometry width="50" height="50" relative="1" as="geometry">
            <mxPoint x="729" y="360" as="sourcePoint" />
            <mxPoint x="926" y="160" as="targetPoint" />
          </mxGeometry>
        </mxCell>
        <mxCell id="PFwcSyFKE1UaYxGD0gQk-15" value="" style="endArrow=classic;html=1;rounded=0;exitX=1;exitY=0.75;exitDx=0;exitDy=0;entryX=0.017;entryY=0.617;entryDx=0;entryDy=0;entryPerimeter=0;jumpStyle=gap;" edge="1" parent="1" source="A6Url9bmE-gUjbMV3d3s-6" target="PFwcSyFKE1UaYxGD0gQk-5">
          <mxGeometry width="50" height="50" relative="1" as="geometry">
            <mxPoint x="790" y="130" as="sourcePoint" />
            <mxPoint x="865" y="130" as="targetPoint" />
          </mxGeometry>
        </mxCell>
      </root>
    </mxGraphModel>
  </diagram>
</mxfile>
